# xmcd
#
# Track frame offsets:
#	150
#	4068
#	15008
#	31234
#	50319
#	65681
#	85346
#	101461
#	120062
#	132085
#	149888
#	168868
#	186002
#
# Disc length: 2726 seconds
#
# Revision: 0
# Processed by: cddbd v1.5.2PL0 Copyright (c) Steve Scherf et al.
# Submitted via: EasyCDDAExtractor 2010.4.0.0
#
DISCID=990aa40d
DTITLE=Lipta  - CAN U SEE ME?
DYEAR=2008
DGENRE=Rhythm and POP
TTITLE0=Interlude Can U See Me
TTITLE1=แทนอารมณ์ 
TTITLE2=หมุนเวลา 
TTITLE3=ลมหายใจของเมือวาน 
TTITLE4=Santa Cluaus Feat Way Thaitanium 
TTITLE5=คำที่ถูกลืม 
TTITLE6=มีเจ้าของ 
TTITLE7=ปฏิเสธอย่างไร 
TTITLE8=ทุกสิ่งทุกอย่าง 
TTITLE9=คนที่เจ็บกว่า 
TTITLE10=อ่อนแอ
TTITLE11=ยาก
TTITLE12=Hidden Track
EXTD=
EXTT0=
EXTT1=
EXTT2=
EXTT3=
EXTT4=
EXTT5=
EXTT6=
EXTT7=
EXTT8=
EXTT9=
EXTT10=
EXTT11=
EXTT12=
PLAYORDER=
